# xmcd
#
# Track frame offsets: 
#        150
#        17098
#        41684
#        62073
#        90541
#        112928
#        134930
#        162899
#        189785
#        197910
#        216860
#        246398
#
# Disc length: 4123 seconds
#
# Revision: 1
# Processed by: cddbd v1.5.2PL0 Copyright (c) Steve Scherf et al.
# Submitted via: ExactAudioCopy v1.0b1
#
DISCID=aa10190c
DTITLE=Jan "Kyks" Skrzek - Bo takie są dziewczyny
DYEAR=2004
DGENRE=Blues
TTITLE0=Bo takie sa dziewczyny
TTITLE1=Śpiewam pieśń dla bluesa
TTITLE2=Wczoraj byłem w kinie
TTITLE3=Blues o śmierci
TTITLE4=Przy ulicy Mariackiej
TTITLE5=Obiecali a nie dali
TTITLE6=Blues dla Kawy
TTITLE7=Swingulec
TTITLE8=Bugi
TTITLE9=Co my z tego mamy
TTITLE10=Ty kroiłaś nam chleb
TTITLE11=Bo takie są dziewczyny - film animowany
EXTD=Jan "Kyks" Skrzek i Slaska Grupa Bluesowa
EXTT0=
EXTT1=
EXTT2=
EXTT3=
EXTT4=
EXTT5=
EXTT6=
EXTT7=
EXTT8=
EXTT9=
EXTT10=
EXTT11=
PLAYORDER=
